# xmcd
#
# Track frame offsets: 
#        150
#        20134
#        35755
#        50872
#        78256
#        98313
#        113929
#        141294
#        164066
#        180925
#        211370
#        223561
#
# Disc length: 3226 seconds
#
# Revision: 0
# Processed by: cddbd v1.5.1PL0 Copyright (c) Steve Scherf et al.
# Submitted via: ExactAudioCopy v0.95a5
#
DISCID=aa0c980c
DTITLE=Various Artist - Proximity Volume One
DYEAR=1998
DGENRE=Jazz
TTITLE0=On Burnside
TTITLE1=Don't It Make Me Blue
TTITLE2=Our Love Rolls On
TTITLE3=Beyond The Beyond
TTITLE4=Perennial
TTITLE5=Wade In The Water
TTITLE6=Saratoga Passage
TTITLE7=Lie Myself To Sleep
TTITLE8=Louie
TTITLE9=Flowers For Marie
TTITLE10=Echoes
TTITLE11=Melody Stomp
EXTD=
EXTT0=
EXTT1=
EXTT2=
EXTT3=
EXTT4=
EXTT5=
EXTT6=
EXTT7=
EXTT8=
EXTT9=
EXTT10=
EXTT11=
PLAYORDER=
